<?xml version="1.0" encoding="UTF-8"?>
<svg width="199px" height="199px" viewBox="0 0 199 199" version="1.1" xmlns="http://www.w3.org/2000/svg" xmlns:xlink="http://www.w3.org/1999/xlink" xmlns:sketch="http://www.bohemiancoding.com/sketch/ns">
    <!-- Generator: Sketch 3.3.3 (12081) - http://www.bohemiancoding.com/sketch -->
    <title>MA</title>
    <desc>Created with Sketch.</desc>
    <defs></defs>
    <g id="Page-1" stroke="none" stroke-width="1" fill="none" fill-rule="evenodd" sketch:type="MSPage">
        <circle id="Oval-220-Copy" fill="#AFE376" sketch:type="MSShapeGroup" cx="99.5" cy="99.5" r="99.5"></circle>
        <g id="Group-Copy-10" sketch:type="MSLayerGroup" transform="translate(43.500000, 30.000000)">
            <path d="M1,28 C1.00000023,21.0000003 16,2.00000001 55.5,0.5 C95,-1.00000001 110,21.5000006 110,27 C110,32.4999994 110,92.0000005 110,92.0000005 C110,92.0000005 91.5,114 55.5,114 C19.5,114 0.999999783,93.7160013 1,92.0000005 C1.00000063,87.0000005 0.999999772,34.9999997 1,28 Z" id="Rectangle-172" fill="#FFFFFF" sketch:type="MSShapeGroup"></path>
            <path d="M42.5,139.500003 C40.5,139.500003 25.5,135.500003 19,121.000003 C12.5,106.500003 11,50 11,50 C11,50 19,38 55,38.5 C91,39 100,50 100,50 C100,50 98,106.000003 91.5,121.000003 C86.4694778,132.608901 72.5,139.500003 69,139.500003 L55,139.500003 L42.5,139.500003 Z" id="Rectangle-171" fill="#D8E4ED" sketch:type="MSShapeGroup"></path>
            <path d="M1,46 C1,46 17.5,31 55.5,31 C93.5,31 110,46 110,46 L100,51 C100,51 94,38.5 55.5,38.5 C17,38.5 11,51 11,51 L1,46 Z" id="Rectangle-173" fill="#A0AEB7" sketch:type="MSShapeGroup"></path>
            <path d="M55.3811854,80.5061328 C59.0827167,80.7587578 62.7890324,86.7241169 66.1539829,86.8128453 C70.5448787,86.9286263 74.4774465,87 77.5,87 C93.5,87 96,60.0000001 78,60 C68.3608086,59.9999999 62.2014643,60 55.2623711,60 C48.4196579,60 42.291393,59.9999999 32.7623711,60 C14.7623711,60.0000001 17.2623711,87 33.2623711,87 C36.2849246,87 40.2174924,86.9286263 44.6083882,86.8128453 C47.9733386,86.7241169 51.6796542,80.7587581 55.3811854,80.5061328 L55.3811854,80.5061328 Z M75,81 C79.418278,81 83,77.418278 83,73 C83,68.581722 79.418278,65 75,65 C70.581722,65 67,68.581722 67,73 C67,77.418278 70.581722,81 75,81 Z M36,81 C40.418278,81 44,77.418278 44,73 C44,68.581722 40.418278,65 36,65 C31.581722,65 28,68.581722 28,73 C28,77.418278 31.581722,81 36,81 Z" id="Rectangle-174" fill="#A0AEB7" sketch:type="MSShapeGroup"></path>
            <path d="M29.5,113 C29.5,113 44.2529389,120 56,120 C67.7470611,120 78.5,113 78.5,113 L78.5,114.5 C78.5,114.5 68.4426641,122 56,122 C43.5573359,122 29.5,114.5 29.5,114.5 L29.5,113 Z" id="Rectangle-176" fill="#A0AEB7" sketch:type="MSShapeGroup"></path>
        </g>
    </g>
</svg>